<mxfile host="app.diagrams.net" modified="2023-12-19T13:48:07.596Z" agent="Mozilla/5.0 (Windows NT 10.0; Win64; x64) AppleWebKit/537.36 (KHTML, like Gecko) Chrome/120.0.0.0 Safari/537.36" etag="HnHdmFr3kH38RB_p3tSC" version="22.1.11" type="github">
  <diagram name="第 1 页" id="EwZEro1I0RQj5z0Lb-oY">
    <mxGraphModel dx="1050" dy="565" grid="1" gridSize="10" guides="1" tooltips="1" connect="1" arrows="1" fold="1" page="1" pageScale="1" pageWidth="827" pageHeight="1169" math="0" shadow="0">
      <root>
        <mxCell id="0" />
        <mxCell id="1" parent="0" />
        <mxCell id="FbIq0hwUkpmo_NCt-8us-2" value="0" style="rounded=0;whiteSpace=wrap;html=1;" parent="1" vertex="1">
          <mxGeometry x="100" y="400" width="40" height="40" as="geometry" />
        </mxCell>
        <mxCell id="FbIq0hwUkpmo_NCt-8us-3" value="0" style="rounded=0;whiteSpace=wrap;html=1;" parent="1" vertex="1">
          <mxGeometry x="140" y="400" width="40" height="40" as="geometry" />
        </mxCell>
        <mxCell id="FbIq0hwUkpmo_NCt-8us-4" value="1" style="rounded=0;whiteSpace=wrap;html=1;" parent="1" vertex="1">
          <mxGeometry x="180" y="400" width="40" height="40" as="geometry" />
        </mxCell>
        <mxCell id="FbIq0hwUkpmo_NCt-8us-5" value="2" style="rounded=0;whiteSpace=wrap;html=1;" parent="1" vertex="1">
          <mxGeometry x="220" y="400" width="40" height="40" as="geometry" />
        </mxCell>
        <mxCell id="FbIq0hwUkpmo_NCt-8us-6" value="1" style="rounded=0;whiteSpace=wrap;html=1;" parent="1" vertex="1">
          <mxGeometry x="100" y="440" width="40" height="40" as="geometry" />
        </mxCell>
        <mxCell id="FbIq0hwUkpmo_NCt-8us-7" value="1" style="rounded=0;whiteSpace=wrap;html=1;" parent="1" vertex="1">
          <mxGeometry x="140" y="440" width="40" height="40" as="geometry" />
        </mxCell>
        <mxCell id="FbIq0hwUkpmo_NCt-8us-8" value="0" style="rounded=0;whiteSpace=wrap;html=1;" parent="1" vertex="1">
          <mxGeometry x="180" y="440" width="40" height="40" as="geometry" />
        </mxCell>
        <mxCell id="FbIq0hwUkpmo_NCt-8us-9" value="dp[i][0]" style="text;html=1;strokeColor=none;fillColor=none;align=center;verticalAlign=middle;whiteSpace=wrap;rounded=0;" parent="1" vertex="1">
          <mxGeometry x="20" y="405" width="60" height="30" as="geometry" />
        </mxCell>
        <mxCell id="FbIq0hwUkpmo_NCt-8us-10" value="0" style="text;html=1;strokeColor=none;fillColor=none;align=center;verticalAlign=middle;whiteSpace=wrap;rounded=0;" parent="1" vertex="1">
          <mxGeometry x="90" y="360" width="60" height="30" as="geometry" />
        </mxCell>
        <mxCell id="FbIq0hwUkpmo_NCt-8us-11" value="1" style="text;html=1;strokeColor=none;fillColor=none;align=center;verticalAlign=middle;whiteSpace=wrap;rounded=0;" parent="1" vertex="1">
          <mxGeometry x="130" y="360" width="60" height="30" as="geometry" />
        </mxCell>
        <mxCell id="FbIq0hwUkpmo_NCt-8us-12" value="2" style="text;html=1;strokeColor=none;fillColor=none;align=center;verticalAlign=middle;whiteSpace=wrap;rounded=0;" parent="1" vertex="1">
          <mxGeometry x="170" y="360" width="60" height="30" as="geometry" />
        </mxCell>
        <mxCell id="FbIq0hwUkpmo_NCt-8us-13" value="3" style="text;html=1;strokeColor=none;fillColor=none;align=center;verticalAlign=middle;whiteSpace=wrap;rounded=0;" parent="1" vertex="1">
          <mxGeometry x="210" y="360" width="60" height="30" as="geometry" />
        </mxCell>
        <mxCell id="FbIq0hwUkpmo_NCt-8us-14" value="1" style="rounded=0;whiteSpace=wrap;html=1;" parent="1" vertex="1">
          <mxGeometry x="260" y="440" width="40" height="40" as="geometry" />
        </mxCell>
        <mxCell id="FbIq0hwUkpmo_NCt-8us-15" value="0" style="rounded=0;whiteSpace=wrap;html=1;" parent="1" vertex="1">
          <mxGeometry x="220" y="440" width="40" height="40" as="geometry" />
        </mxCell>
        <mxCell id="FbIq0hwUkpmo_NCt-8us-16" value="4" style="text;html=1;strokeColor=none;fillColor=none;align=center;verticalAlign=middle;whiteSpace=wrap;rounded=0;" parent="1" vertex="1">
          <mxGeometry x="250" y="360" width="60" height="30" as="geometry" />
        </mxCell>
        <mxCell id="FbIq0hwUkpmo_NCt-8us-17" value="2" style="rounded=0;whiteSpace=wrap;html=1;" parent="1" vertex="1">
          <mxGeometry x="260" y="400" width="40" height="40" as="geometry" />
        </mxCell>
        <mxCell id="FbIq0hwUkpmo_NCt-8us-18" value="dp[i][1]" style="text;html=1;strokeColor=none;fillColor=none;align=center;verticalAlign=middle;whiteSpace=wrap;rounded=0;" parent="1" vertex="1">
          <mxGeometry x="20" y="445" width="60" height="30" as="geometry" />
        </mxCell>
        <mxCell id="FbIq0hwUkpmo_NCt-8us-19" value="字符串下标：" style="text;html=1;strokeColor=none;fillColor=none;align=center;verticalAlign=middle;whiteSpace=wrap;rounded=0;" parent="1" vertex="1">
          <mxGeometry x="40" y="360" width="80" height="30" as="geometry" />
        </mxCell>
        <mxCell id="yXeBYbwdA5rtl3NwEUNn-1" value="字符串：" style="text;html=1;strokeColor=none;fillColor=none;align=center;verticalAlign=middle;whiteSpace=wrap;rounded=0;" vertex="1" parent="1">
          <mxGeometry x="50" y="320" width="80" height="30" as="geometry" />
        </mxCell>
        <mxCell id="yXeBYbwdA5rtl3NwEUNn-2" value="0" style="text;html=1;strokeColor=none;fillColor=none;align=center;verticalAlign=middle;whiteSpace=wrap;rounded=0;" vertex="1" parent="1">
          <mxGeometry x="90" y="320" width="60" height="30" as="geometry" />
        </mxCell>
        <mxCell id="yXeBYbwdA5rtl3NwEUNn-3" value="0" style="text;html=1;strokeColor=none;fillColor=none;align=center;verticalAlign=middle;whiteSpace=wrap;rounded=0;" vertex="1" parent="1">
          <mxGeometry x="130" y="320" width="60" height="30" as="geometry" />
        </mxCell>
        <mxCell id="yXeBYbwdA5rtl3NwEUNn-4" value="1" style="text;html=1;strokeColor=none;fillColor=none;align=center;verticalAlign=middle;whiteSpace=wrap;rounded=0;" vertex="1" parent="1">
          <mxGeometry x="170" y="320" width="60" height="30" as="geometry" />
        </mxCell>
        <mxCell id="yXeBYbwdA5rtl3NwEUNn-5" value="1" style="text;html=1;strokeColor=none;fillColor=none;align=center;verticalAlign=middle;whiteSpace=wrap;rounded=0;" vertex="1" parent="1">
          <mxGeometry x="210" y="320" width="60" height="30" as="geometry" />
        </mxCell>
        <mxCell id="yXeBYbwdA5rtl3NwEUNn-6" value="0" style="text;html=1;strokeColor=none;fillColor=none;align=center;verticalAlign=middle;whiteSpace=wrap;rounded=0;" vertex="1" parent="1">
          <mxGeometry x="250" y="320" width="60" height="30" as="geometry" />
        </mxCell>
      </root>
    </mxGraphModel>
  </diagram>
</mxfile>
